<svg width="25" height="25" viewBox="0 0 25 25" fill="none" xmlns="http://www.w3.org/2000/svg">
<path d="M18.2471 13.0786C18.2373 11.4136 18.9917 10.1587 20.5151 9.2334C19.6631 8.0127 18.374 7.34131 16.6748 7.21191C15.0659 7.08496 13.3057 8.14941 12.6611 8.14941C11.98 8.14941 10.4224 7.25586 9.19678 7.25586C6.66748 7.29492 3.97949 9.27246 3.97949 13.2959C3.97949 14.4849 4.19678 15.7129 4.63135 16.9775C5.2124 18.6426 7.30713 22.7222 9.49219 22.6562C10.6348 22.6294 11.4429 21.8457 12.9297 21.8457C14.3726 21.8457 15.1196 22.6562 16.394 22.6562C18.5986 22.6245 20.4932 18.916 21.0449 17.2461C18.0884 15.8521 18.2471 13.1641 18.2471 13.0786ZM15.6812 5.63232C16.9189 4.1626 16.8066 2.82471 16.77 2.34375C15.6763 2.40723 14.4116 3.08838 13.6914 3.92578C12.8979 4.82422 12.4316 5.93506 12.5317 7.1875C13.7134 7.27783 14.7925 6.66992 15.6812 5.63232Z" fill="black"/>
</svg>
