<svg width="25" height="25" viewBox="0 0 25 25" fill="none" xmlns="http://www.w3.org/2000/svg">
<path d="M2.08325 6.24996C2.08325 5.69742 2.30275 5.16752 2.69345 4.77682C3.08415 4.38612 3.61405 4.16663 4.16659 4.16663H20.8333C21.3858 4.16663 21.9157 4.38612 22.3064 4.77682C22.6971 5.16752 22.9166 5.69742 22.9166 6.24996V18.75C22.9166 19.3025 22.6971 19.8324 22.3064 20.2231C21.9157 20.6138 21.3858 20.8333 20.8333 20.8333H4.16659C3.61405 20.8333 3.08415 20.6138 2.69345 20.2231C2.30275 19.8324 2.08325 19.3025 2.08325 18.75V6.24996Z" stroke="#ABABAB" stroke-width="2.08333" stroke-linecap="round" stroke-linejoin="round"/>
<path d="M2.08325 8.33325L9.89679 14.5843C10.6356 15.1755 11.5537 15.4975 12.4999 15.4975C13.4461 15.4975 14.3642 15.1755 15.103 14.5843L22.9166 8.33325" stroke="#ABABAB" stroke-width="2.08333" stroke-linejoin="round"/>
</svg>
