<svg width="26" height="25" viewBox="0 0 26 25" fill="none" xmlns="http://www.w3.org/2000/svg">
<path d="M12.6455 2.08337C9.75842 2.08337 7.4096 4.41983 7.4096 7.29171V9.37504H6.36242C5.20739 9.37504 4.26807 10.3094 4.26807 11.4584V20.8334C4.26807 21.9823 5.20739 22.9167 6.36242 22.9167H18.9286C20.0836 22.9167 21.0229 21.9823 21.0229 20.8334V11.4584C21.0229 10.3094 20.0836 9.37504 18.9286 9.37504H17.8814V7.29171C17.8814 4.41983 15.5326 2.08337 12.6455 2.08337ZM9.50396 7.29171C9.50396 5.56879 10.9135 4.16671 12.6455 4.16671C14.3775 4.16671 15.787 5.56879 15.787 7.29171V9.37504H9.50396V7.29171ZM18.9307 20.8334H13.6927V18.4605C14.3157 18.099 14.7398 17.4344 14.7398 16.6667C14.7398 15.5177 13.8005 14.5834 12.6455 14.5834C11.4905 14.5834 10.5511 15.5177 10.5511 16.6667C10.5511 17.4334 10.9752 18.099 11.5983 18.4605V20.8334H6.36242V11.4584H18.9286L18.9307 20.8334Z" fill="#ABABAB"/>
</svg>
