<svg width="25" height="25" viewBox="0 0 25 25" fill="none" xmlns="http://www.w3.org/2000/svg">
<path d="M13.1328 3.35933C12.9562 3.20907 12.7319 3.12656 12.5 3.12656C12.2681 3.12656 12.0438 3.20907 11.8672 3.35933L4.25 9.83433C4.14215 9.92609 4.05554 10.0402 3.99619 10.1688C3.93683 10.2973 3.90614 10.4373 3.90625 10.5789V20.7031C3.90625 20.8067 3.94741 20.906 4.02066 20.9793C4.09392 21.0526 4.19327 21.0937 4.29688 21.0937H8.20312C8.30673 21.0937 8.40608 21.0526 8.47934 20.9793C8.5526 20.906 8.59375 20.8067 8.59375 20.7031V15.2343C8.59375 14.7163 8.79953 14.2195 9.16581 13.8533C9.53209 13.487 10.0289 13.2812 10.5469 13.2812H14.0625C14.319 13.2812 14.573 13.3317 14.8099 13.4299C15.0469 13.528 15.2622 13.6719 15.4436 13.8533C15.6249 14.0346 15.7688 14.2499 15.867 14.4869C15.9651 14.7239 16.0156 14.9778 16.0156 15.2343V20.7031C16.0156 20.8067 16.0568 20.906 16.13 20.9793C16.2033 21.0526 16.3026 21.0937 16.4062 21.0937H20.7031C20.8067 21.0937 20.9061 21.0526 20.9793 20.9793C21.0526 20.906 21.0938 20.8067 21.0938 20.7031V10.5781C21.0937 10.4366 21.063 10.2968 21.0036 10.1684C20.9443 10.04 20.8577 9.926 20.75 9.83433L13.1328 3.36011V3.35933ZM10.8555 2.16949C11.3145 1.77922 11.8975 1.56494 12.5 1.56494C13.1025 1.56494 13.6855 1.77922 14.1445 2.16949L21.7617 8.64371C22.0421 8.88205 22.2673 9.17849 22.4218 9.5125C22.5762 9.8465 22.6562 10.2101 22.6562 10.5781V20.7031C22.6563 21.2211 22.4505 21.7179 22.0842 22.0841C21.7179 22.4504 21.2211 22.6562 20.7031 22.6562H16.4062C15.8882 22.6562 15.3915 22.4504 15.0252 22.0841C14.6589 21.7179 14.4531 21.2211 14.4531 20.7031V15.2343C14.4531 15.1307 14.412 15.0314 14.3387 14.9581C14.2655 14.8849 14.1661 14.8437 14.0625 14.8437H10.5469C10.4433 14.8437 10.3439 14.8849 10.2707 14.9581C10.1974 15.0314 10.1562 15.1307 10.1562 15.2343V20.7031C10.1562 21.2211 9.95047 21.7179 9.58419 22.0841C9.21791 22.4504 8.72113 22.6562 8.20312 22.6562H4.29688C3.77887 22.6562 3.28209 22.4504 2.91581 22.0841C2.54953 21.7179 2.34375 21.2211 2.34375 20.7031V10.5781C2.34377 10.2101 2.42378 9.8465 2.57824 9.5125C2.73269 9.17849 2.95791 8.88205 3.23828 8.64371L10.8555 2.16949V2.16949Z" fill="white"/>
</svg>
