<svg width="25" height="25" viewBox="0 0 25 25" fill="none" xmlns="http://www.w3.org/2000/svg">
<path d="M4.1427 10.2499C4.1846 9.72784 4.42161 9.2407 4.80652 8.88551C5.19144 8.53032 5.69602 8.33314 6.21978 8.33325H18.7802C19.304 8.33314 19.8085 8.53032 20.1935 8.88551C20.5784 9.2407 20.8154 9.72784 20.8573 10.2499L21.6937 20.6666C21.7167 20.9532 21.6802 21.2416 21.5863 21.5134C21.4924 21.7852 21.3432 22.0347 21.1482 22.246C20.9532 22.4574 20.7165 22.6261 20.4531 22.7415C20.1897 22.8569 19.9053 22.9165 19.6177 22.9166H5.38228C5.0947 22.9165 4.81025 22.8569 4.54684 22.7415C4.28343 22.6261 4.04677 22.4574 3.85175 22.246C3.65674 22.0347 3.50759 21.7852 3.41371 21.5134C3.31982 21.2416 3.28323 20.9532 3.30624 20.6666L4.1427 10.2499V10.2499Z" stroke="black" stroke-width="2.08333" stroke-linecap="round" stroke-linejoin="round"/>
<path d="M16.6667 11.4583V6.24992C16.6667 5.14485 16.2277 4.08504 15.4463 3.30364C14.6649 2.52224 13.6051 2.08325 12.5 2.08325C11.395 2.08325 10.3352 2.52224 9.55376 3.30364C8.77236 4.08504 8.33337 5.14485 8.33337 6.24992V11.4583" stroke="black" stroke-width="2.08333" stroke-linecap="round" stroke-linejoin="round"/>
</svg>
