<svg width="25" height="25" viewBox="0 0 25 25" fill="none" xmlns="http://www.w3.org/2000/svg">
<path d="M12.5 2.08325C11.4699 2.08325 10.4629 2.38872 9.6064 2.96101C8.7499 3.53331 8.08233 4.34674 7.68813 5.29844C7.29392 6.25014 7.19078 7.29736 7.39174 8.30768C7.59271 9.318 8.08875 10.246 8.81715 10.9744C9.54555 11.7028 10.4736 12.1989 11.4839 12.3998C12.4942 12.6008 13.5414 12.4977 14.4931 12.1035C15.4448 11.7093 16.2583 11.0417 16.8306 10.1852C17.4029 9.32867 17.7083 8.3217 17.7083 7.29158C17.7083 5.91025 17.1596 4.58549 16.1828 3.60874C15.2061 2.63199 13.8813 2.08325 12.5 2.08325ZM12.5 10.4166C11.8819 10.4166 11.2777 10.2333 10.7638 9.88993C10.2499 9.54655 9.8494 9.05849 9.61288 8.48747C9.37635 7.91645 9.31447 7.28812 9.43505 6.68193C9.55562 6.07574 9.85325 5.51892 10.2903 5.08188C10.7273 4.64484 11.2842 4.34721 11.8903 4.22663C12.4965 4.10605 13.1249 4.16794 13.6959 4.40446C14.2669 4.64099 14.755 5.04152 15.0983 5.55543C15.4417 6.06933 15.625 6.67352 15.625 7.29158C15.625 8.12039 15.2958 8.91524 14.7097 9.50129C14.1237 10.0873 13.3288 10.4166 12.5 10.4166ZM21.875 21.8749V20.8333C21.875 18.8994 21.1068 17.0447 19.7393 15.6773C18.3719 14.3098 16.5172 13.5416 14.5833 13.5416H10.4167C8.4828 13.5416 6.62813 14.3098 5.26068 15.6773C3.89323 17.0447 3.125 18.8994 3.125 20.8333V21.8749H5.20833V20.8333C5.20833 19.4519 5.75707 18.1272 6.73382 17.1504C7.71057 16.1737 9.03533 15.6249 10.4167 15.6249H14.5833C15.9647 15.6249 17.2894 16.1737 18.2662 17.1504C19.2429 18.1272 19.7917 19.4519 19.7917 20.8333V21.8749H21.875Z" fill="black"/>
</svg>
