<svg width="284" height="343" viewBox="0 0 284 343" fill="none" xmlns="http://www.w3.org/2000/svg">
<g clip-path="url(#clip0_46_785)">
<path d="M208.366 139.118H0.0888672V272.508H208.366V139.118Z" fill="#E6E6E6"/>
<path d="M202.411 155.848H6.04468V264.616H202.411V155.848Z" fill="white"/>
<path d="M208.277 139H0V147.848H208.277V139Z" fill="#181A20"/>
<path d="M6.57566 145.164C7.48148 145.164 8.21578 144.43 8.21578 143.524C8.21578 142.618 7.48148 141.884 6.57566 141.884C5.66985 141.884 4.93555 142.618 4.93555 143.524C4.93555 144.43 5.66985 145.164 6.57566 145.164Z" fill="white"/>
<path d="M12.8005 145.164C13.7063 145.164 14.4406 144.43 14.4406 143.524C14.4406 142.618 13.7063 141.884 12.8005 141.884C11.8947 141.884 11.1604 142.618 11.1604 143.524C11.1604 144.43 11.8947 145.164 12.8005 145.164Z" fill="white"/>
<path d="M19.0254 145.164C19.9312 145.164 20.6655 144.43 20.6655 143.524C20.6655 142.618 19.9312 141.884 19.0254 141.884C18.1196 141.884 17.3853 142.618 17.3853 143.524C17.3853 144.43 18.1196 145.164 19.0254 145.164Z" fill="white"/>
<path d="M68.6113 164.795H30.2051V206.462H68.6113V164.795Z" fill="#E6E6E6"/>
<path d="M123.43 164.795H85.0242V206.462H123.43V164.795Z" fill="#E6E6E6"/>
<path d="M178.249 164.795H139.843V206.462H178.249V164.795Z" fill="#E6E6E6"/>
<path d="M68.6113 214.004H30.2051V255.672H68.6113V214.004Z" fill="#E6E6E6"/>
<path d="M123.43 214.004H85.0242V255.672H123.43V214.004Z" fill="#E6E6E6"/>
<path d="M178.249 214.004H139.843V255.672H178.249V214.004Z" fill="#E6E6E6"/>
<path d="M94.3068 224.713L101.324 221.938L102.14 235.81C102.14 235.81 103.609 240.053 103.119 241.685C103.119 241.685 103.446 244.459 102.63 244.622C101.813 244.785 99.5282 245.112 99.3667 244.949C99.2052 244.785 99.2036 244.296 99.2036 244.296C99.2036 244.296 97.5715 245.438 97.4084 246.743C97.4084 246.743 90.5543 248.865 90.3911 246.907C90.228 244.948 93.818 243.316 93.818 243.316L96.5924 239.073L94.3068 224.713Z" fill="white"/>
<path d="M109.158 224.713L116.174 221.938L116.99 235.81C116.99 235.81 118.459 240.053 117.97 241.685C117.97 241.685 118.296 244.459 117.48 244.622C116.664 244.785 114.379 245.112 114.217 244.949C114.056 244.785 114.054 244.296 114.054 244.296C114.054 244.296 112.422 245.438 112.259 246.743C112.259 246.743 105.405 248.865 105.241 246.907C105.078 244.948 108.668 243.316 108.668 243.316L111.443 239.073L109.158 224.713Z" fill="white"/>
<path d="M109.843 171.147C109.843 171.147 108.349 175.322 110.081 177.204L108.637 182.164C108.637 182.164 113.765 197.548 112.3 199.697C112.3 199.697 106.83 202.432 95.8894 198.72L100.334 181.48L99.6988 174.203L100.578 170.784L102.531 170.591C102.531 170.591 101.359 174.986 103.508 175.67C105.657 176.354 107.753 170.7 107.753 170.7L109.843 171.147Z" fill="#3F3D56"/>
<path d="M40.8401 198.097L42.7257 198.869L51.7252 187.041L54.5535 200.926L56.4391 200.583C57.6486 188.612 58.6359 176.403 57.4247 170.628L50.4395 170.328L47.2684 180.443L45.7255 187.3L40.8401 198.097Z" fill="white"/>
<path d="M155.282 170.533C155.282 170.533 152.709 174.111 152.835 175.555C152.96 176.998 154.592 200.535 154.592 200.535L158.421 200.723L157.29 183.777L158.231 179.195L160.554 200.535L165.261 200.661L161.056 172.982L160.24 170.534L155.282 170.533Z" fill="white"/>
<path d="M169.827 228.167C169.143 227.347 167.969 226.904 166.841 226.664C166.873 226.562 163.411 225.846 163.352 225.994L162.047 224.954L158.035 227.037L155.781 225.502L154.734 225.874C154.777 225.689 151.484 226.259 151.484 226.259C150.855 226.282 150.052 226.321 149.153 226.39C146.003 226.633 145.76 234.79 145.76 234.79C147.21 234.197 148.755 233.873 150.32 233.835L151.171 243.591C155.549 243.216 160.141 243.653 164.9 244.722L167.132 237.053L172.33 235.031C172.33 235.031 171.442 230.105 169.827 228.167Z" fill="#3F3D56"/>
<path d="M58.2912 223.521C57.7281 222.846 56.7606 222.481 55.8312 222.283C55.859 222.199 53.0048 221.609 52.9561 221.731L51.8803 220.874L48.5758 222.59L46.7186 221.326L45.8561 221.632C45.8913 221.48 43.178 221.95 43.178 221.95C42.6611 221.969 41.9976 222.001 41.2569 222.058C38.6618 222.258 38.4622 228.978 38.4622 228.978C39.6562 228.49 40.9292 228.223 42.2189 228.191L42.9202 247.87C46.5277 247.56 50.3113 247.92 54.2318 248.801L56.0706 230.843L60.3532 229.178C60.3532 229.178 59.6218 225.119 58.2912 223.521Z" fill="white"/>
<path d="M242.109 228.759H260.522V218.906C260.522 216.465 259.552 214.123 257.826 212.396C256.099 210.669 253.757 209.699 251.316 209.699C248.874 209.699 246.532 210.669 244.805 212.396C243.079 214.123 242.109 216.465 242.109 218.906V228.759Z" fill="#2F2E41"/>
<path d="M233.889 338.384H229.929L228.044 323.106H233.889L233.889 338.384Z" fill="#FFB6B6"/>
<path d="M234.899 337.091H227.099C225.781 337.091 224.517 337.614 223.584 338.546C222.652 339.478 222.129 340.743 222.128 342.061V342.222H234.899V337.091Z" fill="#2F2E41"/>
<path d="M281.233 333.098L277.784 335.045L268.633 322.669L273.723 319.796L281.233 333.098Z" fill="#FFB6B6"/>
<path d="M281.477 331.476L274.685 335.309C273.537 335.957 272.693 337.035 272.34 338.305C271.986 339.575 272.152 340.933 272.8 342.081L272.879 342.221L284 335.944L281.477 331.476Z" fill="#2F2E41"/>
<path d="M255.921 269.681L256.226 271.209C256.226 271.209 257.143 272.126 256.685 272.584C256.226 273.042 256.379 275.182 256.379 275.182C256.635 279.083 261.733 301.005 262.644 305.287C262.644 305.287 269.674 309.871 275.175 318.887C280.676 327.903 280.829 330.195 280.829 330.195L274.717 332.793L259.437 314.303C259.437 314.303 255.158 311.705 253.63 309.413C252.101 307.121 242.625 283.434 242.625 283.434L237.276 308.19C237.276 308.19 237.581 317.206 236.206 323.013C235.361 326.678 234.849 330.412 234.678 334.169L227.496 333.405C227.496 333.405 227.954 311.705 228.718 309.413C228.718 309.413 225.509 282.976 231.927 272.431L237.1 258.641L242.166 256.691L255.921 269.681Z" fill="#2F2E41"/>
<path d="M251.411 212.108C241.769 212.273 241.77 226.615 251.411 226.778C261.052 226.614 261.051 212.271 251.411 212.108Z" fill="#FFB8B8"/>
<path d="M243.99 219.063H245.629L246.075 217.947L245.851 219.063H254.814L254.524 216.728L256.702 219.063H258.875V217.798C258.876 216.82 258.684 215.852 258.311 214.949C257.938 214.046 257.39 213.225 256.699 212.533C256.009 211.842 255.189 211.293 254.286 210.918C253.383 210.544 252.416 210.351 251.438 210.35C250.461 210.349 249.493 210.541 248.59 210.914C247.687 211.288 246.866 211.835 246.174 212.526C245.483 213.217 244.934 214.037 244.559 214.939C244.185 215.842 243.991 216.81 243.991 217.787V217.798L243.99 219.063Z" fill="#2F2E41"/>
<path d="M241.468 231.061L259.688 231.209L255.838 270.271C255.838 270.271 234.53 269.146 234.517 262.642L236.513 256.863L241.468 231.061Z" fill="#3F3D56"/>
<path d="M260.471 274.047C260.191 273.704 259.989 273.304 259.881 272.874C259.772 272.445 259.759 271.997 259.842 271.562C259.925 271.127 260.103 270.716 260.362 270.357C260.621 269.998 260.956 269.7 261.343 269.485L260.551 262.608L264.613 261.108L265.595 270.835C265.912 271.509 265.971 272.275 265.761 272.989C265.551 273.704 265.087 274.317 264.456 274.712C263.826 275.108 263.072 275.258 262.338 275.136C261.603 275.013 260.939 274.626 260.471 274.047Z" fill="#FFB6B6"/>
<path d="M257.292 234.574L259.689 231.223C259.689 231.223 261.33 230.859 263.268 233.121C265.207 235.382 266.337 263.649 266.337 263.649L259.23 265.264L255.031 245.235L257.292 234.574Z" fill="#3F3D56"/>
<path d="M217.132 265.228L217.661 290.34L233.918 298.932L263.525 293.645L264.252 267.541L245.483 260.932L217.132 265.228Z" fill="white"/>
<path d="M233.876 299.203L217.404 290.499L216.868 265.005L245.508 260.666L245.57 260.687L264.517 267.359L263.779 293.863L233.876 299.203ZM217.917 290.182L233.96 298.661L263.271 293.426L263.987 267.723L245.458 261.198L217.396 265.45L217.917 290.182Z" fill="#CACACA"/>
<path d="M233.555 272.037L233.492 272.011L217.036 265.469L217.228 264.986L233.62 271.503L264.216 267.284L264.287 267.798L233.555 272.037Z" fill="#CACACA"/>
<path d="M233.847 271.767L233.328 271.773L233.659 298.935L234.178 298.929L233.847 271.767Z" fill="#CACACA"/>
<path d="M231.476 270.736L225.544 268.332L254.1 263.781L260.032 266.186L231.476 270.736Z" fill="#CACACA"/>
<path d="M217.235 272.512L217.029 272.989L223.909 275.951L224.114 275.474L217.235 272.512Z" fill="#CACACA"/>
<path d="M220.35 281.08L220.145 281.557L227.025 284.519L227.23 284.042L220.35 281.08Z" fill="#181A20"/>
<path d="M126.679 300.117L127.207 325.23L143.465 333.821L173.071 328.534L173.799 302.43L155.03 295.821L126.679 300.117Z" fill="white"/>
<path d="M143.422 334.092L126.951 325.388L126.414 299.894L155.055 295.555L155.116 295.576L174.063 302.248L173.325 328.752L143.422 334.092ZM127.463 325.071L143.507 333.55L172.818 328.316L173.534 302.612L155.005 296.087L126.943 300.339L127.463 325.071Z" fill="#CACACA"/>
<path d="M143.102 306.926L143.038 306.9L126.583 300.358L126.774 299.875L143.166 306.393L173.763 302.173L173.834 302.687L143.102 306.926Z" fill="#CACACA"/>
<path d="M143.394 306.656L142.875 306.662L143.205 333.824L143.724 333.818L143.394 306.656Z" fill="#CACACA"/>
<path d="M139.585 305.035L135.091 303.221L163.646 298.671L168.141 300.484L139.585 305.035Z" fill="#CACACA"/>
<path d="M126.781 307.402L126.576 307.879L133.455 310.841L133.661 310.364L126.781 307.402Z" fill="#CACACA"/>
<path d="M129.896 315.969L129.691 316.446L136.571 319.408L136.776 318.931L129.896 315.969Z" fill="#181A20"/>
<path d="M154.922 303.56L155.536 332.712L174.408 342.685L208.777 336.548L209.621 306.245L187.833 298.573L154.922 303.56Z" fill="#181A20"/>
<path d="M174.359 343L155.238 332.896L154.615 303.302L187.863 298.264L187.933 298.289L209.928 306.034L209.071 336.801L174.359 343ZM155.833 332.528L174.457 342.37L208.482 336.294L209.313 306.456L187.804 298.883L155.229 303.818L155.833 332.528Z" fill="#3F3D56"/>
<path d="M173.987 311.464L173.913 311.435L154.811 303.84L155.033 303.28L174.062 310.845L209.579 305.947L209.662 306.544L173.987 311.464Z" fill="#3F3D56"/>
<path d="M174.326 311.151L173.723 311.158L174.106 342.689L174.709 342.681L174.326 311.151Z" fill="#3F3D56"/>
<path d="M170.21 309.283L164.687 307.164L197.836 301.882L203.359 304L170.21 309.283Z" fill="#3F3D56"/>
<path d="M155.041 312.016L154.803 312.57L162.789 316.009L163.027 315.455L155.041 312.016Z" fill="#3F3D56"/>
<path d="M158.658 321.962L158.419 322.515L166.405 325.954L166.644 325.4L158.658 321.962Z" fill="white"/>
<path d="M226.35 269.38C226.751 269.192 227.105 268.918 227.389 268.578C227.672 268.238 227.878 267.84 227.991 267.412C228.104 266.984 228.122 266.536 228.044 266.1C227.965 265.664 227.792 265.251 227.536 264.89L231.226 259.033L228.214 255.922L223.119 264.266C222.54 264.736 222.154 265.402 222.033 266.138C221.912 266.873 222.066 267.628 222.464 268.258C222.862 268.888 223.477 269.35 224.193 269.557C224.91 269.764 225.677 269.701 226.35 269.38V269.38Z" fill="#FFB6B6"/>
<path d="M244.268 232.601L241.624 230.859C241.624 230.859 239.584 231.317 237.414 235.49C235.245 239.663 226.495 258.32 226.495 258.32L230.092 261.971L239.686 247.334L244.268 232.601Z" fill="#3F3D56"/>
</g>
<path d="M122.265 7.99891C122.021 7.83624 121.777 7.61258 121.533 7.32791C121.289 7.00258 121.065 6.67724 120.862 6.35191C120.659 5.98591 120.496 5.66057 120.374 5.37591C120.293 5.05058 120.293 4.7659 120.374 4.5219C120.455 4.23723 120.821 4.01358 121.472 3.85091C122.163 3.68824 122.916 3.70857 123.729 3.91191C124.908 4.15591 125.844 4.54224 126.535 5.07091C127.267 5.59957 127.735 6.39257 127.938 7.4499C128.67 11.5166 129.565 15.4612 130.622 19.2839C131.72 23.0659 132.716 26.8682 133.611 30.6909C134.384 26.6649 135.217 22.7609 136.112 18.9789C137.007 15.1562 138.064 11.1912 139.284 7.08391C139.609 6.02657 140.016 5.07091 140.504 4.21691C141.033 3.32224 141.582 2.56991 142.151 1.95991C142.72 1.34991 143.29 0.882236 143.859 0.556902C144.469 0.231571 144.998 0.109571 145.445 0.190903C145.933 0.272235 146.197 0.719569 146.238 1.53291C146.279 2.30558 146.218 3.20024 146.055 4.21691C145.892 5.23358 145.689 6.2299 145.445 7.2059C145.201 8.14123 145.018 8.81224 144.896 9.21891C144.774 9.66624 144.571 10.3982 144.286 11.4149C144.001 12.4316 143.656 13.6312 143.249 15.0139C142.883 16.3559 142.476 17.8199 142.029 19.4059C141.622 20.9512 141.195 22.5169 140.748 24.1029C140.341 25.6482 139.935 27.1529 139.528 28.6169C139.162 30.0402 138.837 31.2806 138.552 32.3379C138.064 34.1679 137.535 35.7132 136.966 36.9739C136.397 38.1939 135.807 39.1699 135.197 39.9019C134.628 40.6339 134.058 41.1422 133.489 41.4269C132.92 41.7522 132.411 41.9149 131.964 41.9149C131.598 41.9149 131.273 41.7319 130.988 41.3659C130.703 40.9999 130.459 40.5729 130.256 40.0849C130.053 39.5562 129.87 39.0072 129.707 38.4379C129.585 37.8686 129.483 37.4009 129.402 37.0349C129.077 35.6522 128.711 34.2086 128.304 32.7039C127.938 31.1992 127.572 29.7149 127.206 28.2509C126.84 26.7462 126.474 25.2822 126.108 23.8589C125.783 22.3949 125.478 21.0122 125.193 19.7109C124.949 20.7276 124.563 22.0086 124.034 23.5539C123.505 25.0586 122.895 26.6649 122.204 28.3729C121.553 30.0402 120.821 31.7076 120.008 33.3749C119.235 35.0422 118.442 36.5469 117.629 37.8889C116.856 39.2309 116.104 40.3086 115.372 41.1219C114.64 41.9759 113.989 42.4029 113.42 42.4029C112.973 42.4029 112.586 42.3622 112.261 42.2809C111.976 42.1996 111.773 41.9759 111.651 41.6099C111.61 41.4472 111.59 41.2032 111.59 40.8779C111.59 40.5119 111.61 40.1459 111.651 39.7799C111.692 39.4139 111.712 39.0886 111.712 38.8039C111.753 38.4786 111.753 38.2549 111.712 38.1329C110.167 32.7242 108.703 27.5392 107.32 22.5779C105.978 17.6166 104.595 12.8789 103.172 8.36491C103.091 8.12091 102.887 7.65324 102.562 6.96191C102.277 6.27056 101.993 5.53856 101.708 4.7659C101.423 3.99323 101.2 3.28158 101.037 2.63091C100.915 1.93958 100.976 1.51257 101.22 1.34991C101.708 1.02457 102.359 1.04491 103.172 1.41091C104.026 1.73624 104.86 2.22424 105.673 2.87491C106.527 3.52558 107.279 4.25757 107.93 5.07091C108.581 5.88424 108.987 6.57558 109.15 7.14491C109.475 8.24291 109.821 9.52391 110.187 10.9879C110.594 12.4112 111 13.9362 111.407 15.5629C111.814 17.1489 112.22 18.7756 112.627 20.4429C113.034 22.1102 113.4 23.6962 113.725 25.2009C114.05 26.6649 114.335 28.0272 114.579 29.2879C114.823 30.5486 115.006 31.5652 115.128 32.3379C115.941 30.6299 116.755 28.5762 117.568 26.1769C118.422 23.7776 119.195 21.3782 119.886 18.9789C120.577 16.5796 121.147 14.3836 121.594 12.3909C122.041 10.3576 122.265 8.89357 122.265 7.99891ZM157.397 19.7109C159.43 19.5482 161.402 19.4059 163.314 19.2839C165.266 19.1619 167.218 19.0806 169.17 19.0399C170.308 18.9992 171.162 19.1416 171.732 19.4669C172.301 19.7516 172.606 19.9956 172.647 20.1989C172.687 20.5242 172.606 20.9309 172.403 21.4189C172.24 21.9069 171.976 22.3949 171.61 22.8829C171.244 23.3709 170.817 23.7979 170.329 24.1639C169.841 24.4892 169.332 24.6519 168.804 24.6519C166.974 24.6519 165.042 24.6316 163.009 24.5909C161.016 24.5096 159.105 24.4282 157.275 24.3469C157.315 26.5429 157.214 28.7592 156.97 30.9959C156.766 33.1919 156.502 34.9609 156.177 36.3029C156.827 36.3842 157.864 36.4656 159.288 36.5469C160.711 36.6282 162.521 36.6689 164.717 36.6689C166.75 36.6689 168.56 36.5672 170.146 36.3639C171.732 36.1199 173.175 35.8759 174.477 35.6319C174.721 35.8759 174.822 36.2012 174.782 36.6079C174.782 37.0146 174.7 37.4416 174.538 37.8889C174.375 38.2956 174.172 38.6819 173.928 39.0479C173.684 39.3732 173.46 39.5969 173.257 39.7189C172.687 40.0442 171.569 40.4306 169.902 40.8779C168.234 41.2846 166.262 41.5286 163.985 41.6099C163.171 41.6506 162.297 41.6506 161.362 41.6099C160.467 41.6099 159.593 41.5692 158.739 41.4879C157.885 41.4472 157.092 41.3659 156.36 41.2439C155.668 41.1626 155.14 41.0812 154.774 40.9999C154.611 41.2439 154.387 41.4879 154.103 41.7319C153.818 41.9759 153.493 42.1792 153.127 42.3419C152.801 42.5452 152.435 42.6876 152.029 42.7689C151.663 42.8502 151.317 42.8299 150.992 42.7079C150.707 42.5859 150.524 42.3826 150.443 42.0979C150.402 41.8132 150.402 41.4676 150.443 41.0609C150.483 40.6949 150.544 40.2882 150.626 39.8409C150.748 39.3936 150.849 38.9462 150.931 38.4989C151.297 35.7742 151.52 33.0496 151.602 30.3249C151.724 27.6002 151.785 24.9366 151.785 22.3339C151.785 19.7312 151.744 17.2099 151.663 14.7699C151.581 12.3299 151.52 10.0119 151.48 7.81591C150.626 7.49057 149.873 7.08391 149.223 6.59591C148.572 6.06724 148.104 5.41658 147.82 4.64391C147.738 4.39991 147.759 4.15591 147.881 3.91191C148.003 3.66791 148.165 3.46458 148.369 3.30191C148.613 3.09857 148.857 2.95624 149.101 2.87491C149.345 2.75291 149.528 2.71224 149.65 2.75291C151.114 3.36291 152.761 3.66791 154.591 3.66791C157.437 3.62724 160.081 3.48491 162.521 3.24091C165.001 2.95624 167.604 2.69191 170.329 2.44791C170.613 2.40724 170.959 2.42758 171.366 2.50891C171.813 2.54957 172.22 2.63091 172.586 2.75291C172.992 2.87491 173.318 3.03758 173.562 3.24091C173.846 3.40358 173.989 3.60691 173.989 3.85091C173.989 4.17624 173.867 4.54223 173.623 4.9489C173.379 5.35557 173.074 5.76224 172.708 6.16891C172.342 6.53491 171.915 6.88056 171.427 7.2059C170.979 7.49056 170.552 7.67357 170.146 7.75491C167.95 7.95824 165.835 8.10057 163.802 8.18191C161.809 8.22258 159.633 8.24291 157.275 8.24291L157.397 19.7109Z" fill="black"/>
<path d="M32.9949 50.206C31.9782 50.5313 31.0632 50.9787 30.2499 51.548C29.4772 52.1173 28.7859 52.7477 28.1759 53.439C27.5659 54.0897 27.0169 54.781 26.5289 55.513C26.0816 56.245 25.6952 56.916 25.3699 57.526C25.0446 58.2173 24.7599 59.0307 24.5159 59.966C24.2719 60.8607 24.0889 61.796 23.9669 62.772C23.8449 63.748 23.7636 64.7037 23.7229 65.639C23.6822 66.5743 23.6822 67.408 23.7229 68.14C23.8042 69.1973 24.0076 70.397 24.3329 71.739C24.6582 73.0403 25.1259 74.301 25.7359 75.521C26.3866 76.741 27.1999 77.8187 28.1759 78.754C29.1926 79.6487 30.4126 80.218 31.8359 80.462C32.6899 80.584 33.5236 80.6247 34.3369 80.584C35.1909 80.5027 35.9636 80.3807 36.6549 80.218C37.3869 80.0553 38.0376 79.8723 38.6069 79.669C39.2169 79.425 39.7252 79.2013 40.1319 78.998C40.5792 78.7947 41.1079 78.5303 41.7179 78.205C42.3686 77.839 42.9989 77.534 43.6089 77.29C44.2189 77.0053 44.7882 76.8223 45.3169 76.741C45.8456 76.619 46.2116 76.7003 46.4149 76.985C46.6589 77.3103 46.6996 77.7373 46.5369 78.266C46.4149 78.754 46.1506 79.303 45.7439 79.913C45.3372 80.4823 44.8289 81.0517 44.2189 81.621C43.6496 82.1903 43.0599 82.6987 42.4499 83.146C41.3112 83.9593 39.9082 84.6507 38.2409 85.22C36.5736 85.83 34.9266 86.1553 33.2999 86.196C31.0632 86.2367 28.9079 85.891 26.8339 85.159C24.7599 84.427 23.0316 83.2883 21.6489 81.743C20.8356 80.8483 20.1239 79.7097 19.5139 78.327C18.9039 76.9443 18.4159 75.46 18.0499 73.874C17.6839 72.2473 17.4399 70.58 17.3179 68.872C17.1959 67.1233 17.2366 65.456 17.4399 63.87C17.6839 61.9587 18.1719 59.966 18.9039 57.892C19.6359 55.7773 20.6526 53.8457 21.9539 52.097C23.2552 50.3077 24.8616 48.803 26.7729 47.583C28.6842 46.3223 30.9209 45.57 33.4829 45.326C34.5809 45.204 35.7399 45.2243 36.9599 45.387C38.2206 45.5497 39.3389 45.7937 40.3149 46.119C41.3316 46.4443 42.1652 46.8103 42.8159 47.217C43.4666 47.6237 43.7716 47.9897 43.7309 48.315C43.6496 48.803 43.4259 49.1893 43.0599 49.474C42.6939 49.718 42.2466 49.901 41.7179 50.023C41.2299 50.1043 40.7012 50.145 40.1319 50.145C39.6032 50.1043 39.1152 50.0433 38.6679 49.962C37.6512 49.7587 36.6752 49.6773 35.7399 49.718C34.8452 49.718 33.9302 49.8807 32.9949 50.206ZM49.307 71.434C49.307 69.5227 49.6527 67.6927 50.344 65.944C51.076 64.1953 52.0927 62.65 53.394 61.308C54.6953 59.966 56.2407 58.9087 58.03 58.136C59.8193 57.3227 61.7917 56.916 63.947 56.916C65.7363 56.916 67.363 57.3023 68.827 58.075C70.3317 58.8477 71.6127 59.8847 72.67 61.186C73.7273 62.4873 74.5407 63.9717 75.11 65.639C75.72 67.3063 76.025 69.0347 76.025 70.824C76.025 72.654 75.6793 74.484 74.988 76.314C74.3373 78.1033 73.402 79.7097 72.182 81.133C70.962 82.5157 69.498 83.634 67.79 84.488C66.082 85.3827 64.191 85.83 62.117 85.83C60.165 85.83 58.396 85.464 56.81 84.732C55.224 84.0407 53.8617 83.0647 52.723 81.804C51.625 80.5027 50.771 78.9777 50.161 77.229C49.5917 75.4397 49.307 73.508 49.307 71.434ZM63.825 62.162C62.483 62.162 61.2427 62.4263 60.104 62.955C58.9653 63.443 57.969 64.1343 57.115 65.029C56.261 65.883 55.59 66.8997 55.102 68.079C54.6547 69.2177 54.431 70.4173 54.431 71.678C54.431 72.7353 54.614 73.7927 54.98 74.85C55.3867 75.8667 55.9357 76.802 56.627 77.656C57.3183 78.51 58.152 79.2013 59.128 79.73C60.1447 80.2587 61.2427 80.523 62.422 80.523C63.6013 80.523 64.7197 80.2383 65.777 79.669C66.875 79.059 67.8103 78.2863 68.583 77.351C69.3963 76.4157 70.0267 75.3583 70.474 74.179C70.962 72.959 71.206 71.739 71.206 70.519C71.206 69.543 71.023 68.567 70.657 67.591C70.3317 66.615 69.8437 65.7203 69.193 64.907C68.583 64.0937 67.8103 63.443 66.875 62.955C65.9803 62.4263 64.9637 62.162 63.825 62.162ZM82.0429 61.918C81.4735 61.552 80.9855 61.1047 80.5789 60.576C80.1722 60.0473 79.8875 59.4373 79.7249 58.746C79.6842 58.5833 79.6639 58.38 79.6639 58.136C79.6639 57.8513 79.6842 57.587 79.7249 57.343C79.7655 57.099 79.8265 56.8957 79.9079 56.733C80.0299 56.5297 80.1925 56.428 80.3959 56.428C80.5992 56.428 80.8432 56.4687 81.1279 56.55C81.4125 56.6313 81.6769 56.7127 81.9209 56.794C82.4902 56.9973 83.2222 57.3023 84.1169 57.709C85.0115 58.075 85.7029 58.4613 86.1909 58.868C86.9229 59.356 87.2889 60.1897 87.2889 61.369V62.284C87.9802 61.5113 88.8545 60.8607 89.9119 60.332C91.0099 59.7627 92.2705 59.478 93.6939 59.478C95.5239 59.478 97.0895 59.8033 98.3909 60.454C99.6922 61.1047 100.749 62.223 101.563 63.809C101.725 63.199 101.99 62.65 102.356 62.162C102.722 61.6333 103.128 61.186 103.576 60.82C104.064 60.454 104.552 60.1693 105.04 59.966C105.528 59.722 105.955 59.5593 106.321 59.478C107.581 59.234 108.781 59.3357 109.92 59.783C111.099 60.2303 112.116 60.9827 112.97 62.04C113.824 63.0973 114.495 64.4597 114.983 66.127C115.512 67.7943 115.776 69.7463 115.776 71.983C115.776 73.691 115.715 75.399 115.593 77.107C115.471 78.815 115.715 80.523 116.325 82.231C116.528 82.7597 116.772 83.3493 117.057 84C117.382 84.61 117.362 85.0777 116.996 85.403C116.833 85.525 116.589 85.5657 116.264 85.525C115.939 85.525 115.593 85.464 115.227 85.342C114.861 85.2607 114.495 85.159 114.129 85.037C113.803 84.915 113.559 84.793 113.397 84.671C112.705 84.2643 112.136 83.7153 111.689 83.024C111.282 82.292 110.977 81.499 110.774 80.645C110.57 79.7503 110.428 78.8353 110.347 77.9C110.306 76.924 110.286 75.9887 110.286 75.094C110.286 73.508 110.225 72.0847 110.103 70.824C110.021 69.5227 109.818 68.4247 109.493 67.53C109.208 66.6353 108.761 65.944 108.151 65.456C107.581 64.968 106.788 64.724 105.772 64.724C105.162 64.724 104.572 64.9273 104.003 65.334C103.433 65.7407 102.986 66.2897 102.661 66.981C102.823 67.7537 102.945 68.5467 103.027 69.36C103.108 70.1733 103.149 71.0477 103.149 71.983C103.149 73.0403 103.108 74.1383 103.027 75.277C102.945 76.375 102.884 77.4933 102.844 78.632C102.844 79.73 102.884 80.8483 102.966 81.987C103.088 83.1257 103.332 84.2237 103.698 85.281C103.779 85.525 103.901 85.7893 104.064 86.074C104.226 86.3993 104.348 86.7043 104.43 86.989C104.552 87.2737 104.613 87.538 104.613 87.782C104.613 88.0667 104.531 88.2903 104.369 88.453C104.206 88.575 103.962 88.6157 103.637 88.575C103.311 88.575 102.966 88.514 102.6 88.392C102.234 88.3107 101.868 88.209 101.502 88.087C101.176 87.965 100.932 87.843 100.77 87.721C99.9565 87.233 99.3262 86.5213 98.8789 85.586C98.4722 84.6507 98.1672 83.634 97.9639 82.536C97.8012 81.3973 97.6995 80.2383 97.6589 79.059C97.6589 77.839 97.6589 76.7207 97.6589 75.704C97.6589 74.118 97.6182 72.6947 97.5369 71.434C97.4962 70.1733 97.3335 69.0957 97.0489 68.201C96.7642 67.3063 96.3169 66.6353 95.7069 66.188C95.0969 65.7 94.2429 65.456 93.1449 65.456C92.8195 65.456 92.4942 65.4967 92.1689 65.578C91.8842 65.6187 91.5182 65.7203 91.0709 65.883C90.6642 66.005 90.1559 66.2083 89.5459 66.493C88.9359 66.737 88.1835 67.042 87.2889 67.408L87.3499 78.449C87.3499 79.791 87.2279 81.072 86.9839 82.292C86.7399 83.4713 86.4145 84.488 86.0079 85.342C85.6012 86.2367 85.1132 86.9483 84.5439 87.477C84.0152 88.0057 83.4459 88.27 82.8359 88.27C82.5919 88.27 82.4089 87.843 82.2869 86.989C82.1649 86.1757 82.0835 85.22 82.0429 84.122C82.0022 83.024 81.9819 81.9463 81.9819 80.889C82.0225 79.791 82.0429 78.998 82.0429 78.51V61.918ZM123.942 61.918C123.373 61.552 122.885 61.1047 122.478 60.576C122.072 60.0473 121.787 59.4373 121.624 58.746C121.584 58.5833 121.563 58.38 121.563 58.136C121.563 57.8513 121.584 57.587 121.624 57.343C121.665 57.099 121.726 56.8957 121.807 56.733C121.929 56.5297 122.092 56.428 122.295 56.428C122.499 56.428 122.743 56.4687 123.027 56.55C123.312 56.6313 123.576 56.7127 123.82 56.794C124.39 56.9973 125.122 57.3023 126.016 57.709C126.911 58.075 127.602 58.4613 128.09 58.868C128.822 59.356 129.188 60.1897 129.188 61.369V62.284C129.88 61.5113 130.754 60.8607 131.811 60.332C132.909 59.7627 134.17 59.478 135.593 59.478C137.423 59.478 138.989 59.8033 140.29 60.454C141.592 61.1047 142.649 62.223 143.462 63.809C143.625 63.199 143.889 62.65 144.255 62.162C144.621 61.6333 145.028 61.186 145.475 60.82C145.963 60.454 146.451 60.1693 146.939 59.966C147.427 59.722 147.854 59.5593 148.22 59.478C149.481 59.234 150.681 59.3357 151.819 59.783C152.999 60.2303 154.015 60.9827 154.869 62.04C155.723 63.0973 156.394 64.4597 156.882 66.127C157.411 67.7943 157.675 69.7463 157.675 71.983C157.675 73.691 157.614 75.399 157.492 77.107C157.37 78.815 157.614 80.523 158.224 82.231C158.428 82.7597 158.672 83.3493 158.956 84C159.282 84.61 159.261 85.0777 158.895 85.403C158.733 85.525 158.489 85.5657 158.163 85.525C157.838 85.525 157.492 85.464 157.126 85.342C156.76 85.2607 156.394 85.159 156.028 85.037C155.703 84.915 155.459 84.793 155.296 84.671C154.605 84.2643 154.036 83.7153 153.588 83.024C153.182 82.292 152.877 81.499 152.673 80.645C152.47 79.7503 152.328 78.8353 152.246 77.9C152.206 76.924 152.185 75.9887 152.185 75.094C152.185 73.508 152.124 72.0847 152.002 70.824C151.921 69.5227 151.718 68.4247 151.392 67.53C151.108 66.6353 150.66 65.944 150.05 65.456C149.481 64.968 148.688 64.724 147.671 64.724C147.061 64.724 146.472 64.9273 145.902 65.334C145.333 65.7407 144.886 66.2897 144.56 66.981C144.723 67.7537 144.845 68.5467 144.926 69.36C145.008 70.1733 145.048 71.0477 145.048 71.983C145.048 73.0403 145.008 74.1383 144.926 75.277C144.845 76.375 144.784 77.4933 144.743 78.632C144.743 79.73 144.784 80.8483 144.865 81.987C144.987 83.1257 145.231 84.2237 145.597 85.281C145.679 85.525 145.801 85.7893 145.963 86.074C146.126 86.3993 146.248 86.7043 146.329 86.989C146.451 87.2737 146.512 87.538 146.512 87.782C146.512 88.0667 146.431 88.2903 146.268 88.453C146.106 88.575 145.862 88.6157 145.536 88.575C145.211 88.575 144.865 88.514 144.499 88.392C144.133 88.3107 143.767 88.209 143.401 88.087C143.076 87.965 142.832 87.843 142.669 87.721C141.856 87.233 141.226 86.5213 140.778 85.586C140.372 84.6507 140.067 83.634 139.863 82.536C139.701 81.3973 139.599 80.2383 139.558 79.059C139.558 77.839 139.558 76.7207 139.558 75.704C139.558 74.118 139.518 72.6947 139.436 71.434C139.396 70.1733 139.233 69.0957 138.948 68.201C138.664 67.3063 138.216 66.6353 137.606 66.188C136.996 65.7 136.142 65.456 135.044 65.456C134.719 65.456 134.394 65.4967 134.068 65.578C133.784 65.6187 133.418 65.7203 132.97 65.883C132.564 66.005 132.055 66.2083 131.445 66.493C130.835 66.737 130.083 67.042 129.188 67.408L129.249 78.449C129.249 79.791 129.127 81.072 128.883 82.292C128.639 83.4713 128.314 84.488 127.907 85.342C127.501 86.2367 127.013 86.9483 126.443 87.477C125.915 88.0057 125.345 88.27 124.735 88.27C124.491 88.27 124.308 87.843 124.186 86.989C124.064 86.1757 123.983 85.22 123.942 84.122C123.902 83.024 123.881 81.9463 123.881 80.889C123.922 79.791 123.942 78.998 123.942 78.51V61.918ZM174.991 84.671C172.877 84.6303 171.026 84.1627 169.44 83.268C167.895 82.3327 166.634 81.1533 165.658 79.73C164.682 78.266 164.011 76.6597 163.645 74.911C163.279 73.1217 163.218 71.373 163.462 69.665C163.706 67.7943 164.215 66.0863 164.987 64.541C165.801 62.9957 166.817 61.6943 168.037 60.637C169.257 59.5797 170.681 58.7867 172.307 58.258C173.934 57.6887 175.703 57.465 177.614 57.587C179.241 57.709 180.603 58.136 181.701 58.868C182.799 59.6 183.694 60.4337 184.385 61.369C185.077 62.3043 185.585 63.2397 185.91 64.175C186.236 65.1103 186.439 65.822 186.52 66.31C186.927 66.6353 187.273 67.0623 187.557 67.591C187.842 68.1197 187.984 68.4857 187.984 68.689C187.862 69.299 187.029 69.7667 185.483 70.092C184.873 70.214 183.857 70.3563 182.433 70.519C181.01 70.6817 179.465 70.8443 177.797 71.007C176.171 71.1697 174.564 71.2917 172.978 71.373C171.433 71.4543 170.233 71.4747 169.379 71.434C169.298 72.2067 169.298 73.081 169.379 74.057C169.461 75.033 169.705 75.9683 170.111 76.863C170.518 77.717 171.128 78.449 171.941 79.059C172.755 79.669 173.853 79.9943 175.235 80.035C176.13 80.1163 177.086 80.0553 178.102 79.852C179.16 79.6487 179.892 79.4657 180.298 79.303C181.844 78.7743 182.962 78.3473 183.653 78.022C184.345 77.6967 184.833 77.6967 185.117 78.022C185.361 78.266 185.321 78.815 184.995 79.669C184.711 80.523 183.958 81.438 182.738 82.414C181.518 83.3493 180.197 83.9593 178.773 84.244C177.35 84.5287 176.089 84.671 174.991 84.671ZM181.213 66.188C181.091 65.578 180.847 64.968 180.481 64.358C180.156 63.7073 179.709 63.1583 179.139 62.711C178.611 62.223 177.98 61.857 177.248 61.613C176.557 61.369 175.805 61.3283 174.991 61.491C174.219 61.613 173.527 61.8977 172.917 62.345C172.348 62.7923 171.84 63.321 171.392 63.931C170.945 64.541 170.579 65.1917 170.294 65.883C170.01 66.5743 169.806 67.2453 169.684 67.896C171.88 67.5707 173.893 67.2657 175.723 66.981C177.553 66.6963 179.383 66.432 181.213 66.188ZM192.42 59.783C192.135 59.5797 191.81 59.3763 191.444 59.173C191.078 58.929 190.712 58.685 190.346 58.441C190.02 58.197 189.736 57.9123 189.492 57.587C189.248 57.2617 189.126 56.916 189.126 56.55C189.126 56.2653 189.349 56.0213 189.797 55.818C190.244 55.574 190.61 55.4113 190.895 55.33C191.423 55.1673 192.115 55.0047 192.969 54.842C193.863 54.6387 194.656 54.598 195.348 54.72C195.592 54.7607 195.836 54.8827 196.08 55.086C196.364 55.2487 196.608 55.452 196.812 55.696C197.056 55.94 197.239 56.2043 197.361 56.489C197.523 56.733 197.605 56.9567 197.605 57.16V58.685C198.581 57.831 199.658 57.1803 200.838 56.733C202.017 56.2857 202.952 56.062 203.644 56.062C204.823 56.062 205.819 56.3467 206.633 56.916C207.446 57.4853 208.076 58.2377 208.524 59.173C208.686 59.4983 208.829 59.9457 208.951 60.515C209.073 61.0843 209.032 61.5113 208.829 61.796C208.666 62.04 208.361 62.3857 207.914 62.833C207.507 63.2397 207.08 63.4023 206.633 63.321C206.307 63.2803 205.982 63.138 205.657 62.894C205.331 62.6093 205.006 62.3247 204.681 62.04C204.355 61.7553 204.01 61.491 203.644 61.247C203.318 61.003 202.973 60.881 202.607 60.881C201.671 60.881 200.736 61.1453 199.801 61.674C198.906 62.2027 198.174 62.7923 197.605 63.443V74.484C197.605 75.7853 197.584 77.107 197.544 78.449C197.544 79.791 197.483 81.011 197.361 82.109C197.279 83.1663 197.137 84.0407 196.934 84.732C196.73 85.4233 196.425 85.769 196.019 85.769C195.653 85.769 195.246 85.5657 194.799 85.159C194.392 84.7523 194.006 84.1627 193.64 83.39C193.314 82.6173 193.03 81.6617 192.786 80.523C192.542 79.3843 192.42 78.083 192.42 76.619V59.783ZM232.179 58.746C232.586 59.112 232.931 59.539 233.216 60.027C233.501 60.4743 233.704 60.9217 233.826 61.369C233.948 61.8163 233.968 62.223 233.887 62.589C233.846 62.9143 233.704 63.138 233.46 63.26C233.135 63.4227 232.647 63.321 231.996 62.955C231.386 62.5483 230.756 62.1823 230.105 61.857C229.698 61.6537 229.027 61.4097 228.092 61.125C227.197 60.8403 226.201 60.7387 225.103 60.82C222.907 61.0233 221.24 62.101 220.101 64.053C218.962 65.9643 218.434 68.384 218.515 71.312C218.556 72.6133 218.739 73.874 219.064 75.094C219.389 76.2733 219.857 77.3307 220.467 78.266C221.118 79.2013 221.911 79.9537 222.846 80.523C223.822 81.0517 224.961 81.2957 226.262 81.255C227.767 81.2143 229.088 80.9907 230.227 80.584C231.406 80.1773 232.443 79.6893 233.338 79.12C233.623 78.9573 233.928 78.7743 234.253 78.571C234.619 78.3677 234.944 78.205 235.229 78.083C235.554 77.9203 235.819 77.8187 236.022 77.778C236.266 77.7373 236.449 77.778 236.571 77.9C236.693 78.1033 236.713 78.3677 236.632 78.693C236.551 79.0183 236.408 79.364 236.205 79.73C236.042 80.096 235.839 80.4417 235.595 80.767C235.351 81.0923 235.127 81.377 234.924 81.621C233.785 82.841 232.382 83.7763 230.715 84.427C229.048 85.0777 227.299 85.403 225.469 85.403C223.476 85.403 221.687 85.037 220.101 84.305C218.515 83.573 217.153 82.5767 216.014 81.316C214.916 80.0553 214.062 78.571 213.452 76.863C212.842 75.155 212.517 73.3453 212.476 71.434C212.435 69.5633 212.659 67.7537 213.147 66.005C213.676 64.2157 214.448 62.6297 215.465 61.247C216.482 59.8643 217.702 58.746 219.125 57.892C220.589 56.9973 222.236 56.489 224.066 56.367C225.042 56.2857 225.957 56.3263 226.811 56.489C227.665 56.611 228.417 56.8143 229.068 57.099C229.759 57.343 230.369 57.6277 230.898 57.953C231.427 58.2377 231.854 58.502 232.179 58.746ZM251.127 84.671C249.012 84.6303 247.162 84.1627 245.576 83.268C244.03 82.3327 242.77 81.1533 241.794 79.73C240.818 78.266 240.147 76.6597 239.781 74.911C239.415 73.1217 239.354 71.373 239.598 69.665C239.842 67.7943 240.35 66.0863 241.123 64.541C241.936 62.9957 242.953 61.6943 244.173 60.637C245.393 59.5797 246.816 58.7867 248.443 58.258C250.069 57.6887 251.838 57.465 253.75 57.587C255.376 57.709 256.739 58.136 257.837 58.868C258.935 59.6 259.829 60.4337 260.521 61.369C261.212 62.3043 261.72 63.2397 262.046 64.175C262.371 65.1103 262.574 65.822 262.656 66.31C263.062 66.6353 263.408 67.0623 263.693 67.591C263.977 68.1197 264.12 68.4857 264.12 68.689C263.998 69.299 263.164 69.7667 261.619 70.092C261.009 70.214 259.992 70.3563 258.569 70.519C257.145 70.6817 255.6 70.8443 253.933 71.007C252.306 71.1697 250.7 71.2917 249.114 71.373C247.568 71.4543 246.369 71.4747 245.515 71.434C245.433 72.2067 245.433 73.081 245.515 74.057C245.596 75.033 245.84 75.9683 246.247 76.863C246.653 77.717 247.263 78.449 248.077 79.059C248.89 79.669 249.988 79.9943 251.371 80.035C252.265 80.1163 253.221 80.0553 254.238 79.852C255.295 79.6487 256.027 79.4657 256.434 79.303C257.979 78.7743 259.097 78.3473 259.789 78.022C260.48 77.6967 260.968 77.6967 261.253 78.022C261.497 78.266 261.456 78.815 261.131 79.669C260.846 80.523 260.094 81.438 258.874 82.414C257.654 83.3493 256.332 83.9593 254.909 84.244C253.485 84.5287 252.225 84.671 251.127 84.671ZM257.349 66.188C257.227 65.578 256.983 64.968 256.617 64.358C256.291 63.7073 255.844 63.1583 255.275 62.711C254.746 62.223 254.116 61.857 253.384 61.613C252.692 61.369 251.94 61.3283 251.127 61.491C250.354 61.613 249.663 61.8977 249.053 62.345C248.483 62.7923 247.975 63.321 247.528 63.931C247.08 64.541 246.714 65.1917 246.43 65.883C246.145 66.5743 245.942 67.2453 245.82 67.896C248.016 67.5707 250.029 67.2657 251.859 66.981C253.689 66.6963 255.519 66.432 257.349 66.188Z" fill="black"/>
<defs>
<clipPath id="clip0_46_785">
<rect width="284" height="204" fill="white" transform="translate(0 139)"/>
</clipPath>
</defs>
</svg>
